<svg width="342" height="66" viewBox="0 0 342 66" fill="none" xmlns="http://www.w3.org/2000/svg">
<path d="M247.013 42.3143C248.005 44.6843 249.723 45.8123 252.269 46.0073C253.971 46.1403 257.271 46.4203 257.271 46.4203C258.552 48.1933 257.038 49.6813 257.027 49.7023C257.059 49.7763 258.65 50.4593 260.831 47.8183L261.357 48.2993C262.953 49.7763 265.012 52.1053 265.369 54.8313C265.93 58.9703 259.396 64.2793 258.051 65.3223H264.631L273.237 54.6833C273.237 54.6833 277.98 55.1853 279.02 58.8383C279.806 61.5803 274.41 64.6393 273.129 65.3223H279.547L309.138 44.5843C309.138 44.5843 319.816 45.6263 321.899 53.0523C322.799 56.8583 319.059 64.2743 318.506 65.3223H323.701L327.383 48.1513C327.383 48.1513 334.041 48.8183 335.254 53.9363C336.161 57.7693 331.824 64.3423 331.151 65.3223H336.497C336.81 64.4273 338.704 58.7803 339.819 52.8673C334.192 44.7743 336.542 37.3363 336.542 37.3363C336.542 37.3363 338.467 38.0143 341.788 43.0423C339.102 22.2693 322.939 23.0793 307.211 18.1813C291.483 13.2903 286.441 6.60727 276.202 1.86227C265.97 -2.88573 257.34 6.44627 253.399 9.97327C248.654 14.2353 245.769 15.8543 245.679 15.9233C245.679 15.9233 244.761 16.6403 243.176 16.5243C243.176 16.5243 240.516 16.5793 236.861 14.7983C236.342 16.7303 241.283 19.6733 241.283 19.6733C241.217 20.0073 240.386 23.2093 240.317 23.7753C240.143 25.1783 240.444 26.1093 240.836 27.1893L247.013 42.3143ZM250.543 36.3753C249.389 36.3753 248.455 35.4393 248.455 34.2823C248.455 33.1283 249.389 32.1883 250.543 32.1883C251.697 32.1883 252.64 33.1283 252.64 34.2823C252.64 35.4393 251.697 36.3753 250.543 36.3753Z" fill="#241F20"/>
<path d="M49.8499 49.0782C49.8499 56.0552 52.1799 58.6532 54.5619 58.6532C55.7479 58.6532 58.0979 57.6062 58.1269 53.5462L58.1709 39.2642C58.1709 39.2642 57.1969 39.2642 56.6569 39.2642C52.9779 39.2642 49.8499 43.4782 49.8499 49.0782ZM183.39 38.9412C182.856 38.9412 182.443 39.0202 181.961 39.2642L181.972 55.4092C181.861 57.7642 183.036 58.6532 184.237 58.6532C187.262 58.6532 190.075 54.6892 190.07 49.0782C190.07 43.4782 187.08 38.9412 183.39 38.9412ZM210.221 49.0782C210.221 56.0552 212.555 58.6532 214.931 58.6532C216.123 58.6532 218.473 57.6062 218.505 53.5462L218.547 39.2642C218.547 39.2642 217.573 39.2642 217.033 39.2642C213.357 39.2642 210.221 43.4782 210.221 49.0782ZM112.957 20.2882C115.757 20.2882 118.018 22.3472 118.018 24.8822C118.018 27.4202 115.757 29.4722 112.957 29.4722C110.163 29.4722 107.899 27.4202 107.899 24.8822C107.899 22.3472 110.163 20.2882 112.957 20.2882ZM227.413 65.3282C227.413 65.3282 224.147 65.3282 220.376 65.3282L220.378 63.3802C219.971 63.8942 218.721 65.6932 214.318 65.5872L214.397 65.5932H213.96C207.651 65.5932 202.181 60.8772 201.191 51.8782C200.804 52.0742 200.426 52.2962 200.053 52.5562C199.857 52.6992 199.656 52.8472 199.455 53.0012C199.19 53.2022 198.936 53.4192 198.677 53.6302C196.798 60.8242 190.478 65.6192 183.195 65.6192C177.134 65.6192 172.614 61.8932 172.688 55.2452L172.714 51.0212C171.836 51.3602 170.998 51.7892 170.225 52.3232C170.027 52.4662 169.823 52.6142 169.622 52.7522C168.582 53.5672 167.642 54.2662 166.843 55.0232C164.755 61.1942 159.681 65.5722 153.74 65.5722C145.935 65.5722 139.611 58.0502 139.611 48.7822C139.611 45.1352 140.597 41.7702 142.261 39.0202C140.64 39.0202 135.103 39.0202 135.103 39.0202L135.047 57.4782C135.047 61.3692 136.416 63.1262 139.196 63.4442L137.814 65.6992C131.166 65.0422 125.773 62.3592 125.872 55.7742L125.855 51.2652C124.935 51.5982 124.12 52.0002 123.307 52.5562C123.12 52.6992 122.913 52.8472 122.712 53.0012C119.904 55.1922 117.562 58.3782 117.42 62.4122V65.3172H108.437L108.455 51.2702C107.537 51.5982 106.637 52.0052 105.828 52.5562C105.637 52.6992 105.435 52.8472 105.23 53.0012C102.633 55.0282 100.347 57.9342 99.9089 61.5382L99.9019 65.3172H91.0619V42.4452C91.0619 40.5022 90.0299 39.5132 88.5189 39.5132C88.5189 39.5132 88.3029 39.5072 88.2539 39.5072C86.8539 39.5072 84.4659 40.8862 84.4369 48.6712L84.3939 65.3172H75.4519V51.2492C74.5499 51.5822 73.7469 51.9792 72.9599 52.5242C72.7629 52.6722 72.5609 52.8212 72.3559 52.9632C69.5009 55.1922 67.1099 58.4632 67.0479 62.5972L67.0339 65.3282C67.0339 65.3282 63.7689 65.3282 59.9969 65.3282L60.0019 63.3802C59.5939 63.8942 58.3499 65.6932 53.9419 65.5872L54.0239 65.5932C53.8739 65.5932 53.7299 65.5932 53.5849 65.5932C47.5739 65.5932 42.3289 61.3062 40.9989 53.1122C38.2059 55.3452 35.8889 58.5582 35.8259 62.6232L35.8159 65.3172L26.0269 65.3392L26.0499 41.6352L18.0149 57.3732L10.0579 42.3762V65.3172H0.211914L0.224915 20.3362L9.1779 20.3412L18.0339 37.6502L26.6679 20.2942L35.8259 20.3072L35.8209 52.7522C36.7369 52.4292 38.1829 51.9682 38.9809 51.4282C39.1689 51.2752 39.3629 51.1322 39.5619 50.9892C39.9549 50.6822 40.3279 50.3432 40.6799 49.9842C40.6699 47.9882 41.0559 45.5062 41.0559 45.5062C41.3669 44.0552 41.8579 42.6882 42.5029 41.4392C42.5749 41.2962 42.6489 41.1642 42.7229 41.0262C45.4739 36.0302 50.7139 32.8572 56.6879 32.8572H67.0339V52.7312C67.9499 52.4082 69.3989 51.9532 70.2009 51.4022C70.3909 51.2492 70.5809 51.1062 70.7819 50.9632C73.3329 48.9522 75.1189 45.9502 75.4519 42.4132V32.8572H84.4049L84.4019 34.3042C85.2869 33.7302 86.6899 32.8542 90.4849 32.8542H90.7259C97.1609 32.8542 99.9369 36.0142 99.9369 42.8232L99.9199 52.8212C100.854 52.4872 102.316 51.9582 103.072 51.4342C103.262 51.2802 103.456 51.1432 103.653 51.0002C106.375 48.8452 108.324 45.4742 108.466 41.6112L108.475 32.8572H117.42V52.8422C118.343 52.5082 119.766 51.9682 120.55 51.4342C120.743 51.2802 120.94 51.1432 121.136 51.0002C123.863 48.8402 125.773 45.5582 125.91 41.6932V39.0202H122.31V34.9902H125.914V20.3442H135.136L135.092 34.9902H145.692C147.97 33.1032 150.747 31.9942 153.74 31.9942C161.534 31.9942 167.859 39.5072 167.859 48.7822C167.859 49.5342 167.806 50.2752 167.722 51.0052C167.83 50.9262 167.933 50.8412 168.047 50.7672C170.718 48.6552 172.518 45.3262 172.709 41.5452L172.664 20.3522H181.924L181.935 32.5152C182.453 32.4302 182.882 32.4302 183.425 32.4302C190.949 32.4302 197.3 37.6812 198.889 45.2302C198.889 45.2302 199.288 46.9932 199.161 49.8352C199.984 48.9882 200.675 48.0152 201.244 46.9512C201.339 46.1042 201.434 45.5062 201.434 45.5062C201.747 44.0552 202.234 42.6882 202.877 41.4392C202.951 41.2962 203.028 41.1642 203.102 41.0262C205.849 36.0302 211.089 32.8572 217.062 32.8572H227.413V65.3282ZM153.74 38.7032C150.895 38.7032 148.595 43.2142 148.595 48.7822C148.595 54.3452 150.895 58.8602 153.74 58.8602C156.577 58.8602 158.88 54.3452 158.88 48.7822C158.88 43.2142 156.577 38.7032 153.74 38.7032Z" fill="#2BA343"/>
</svg>
